<svg width="179" height="94" viewBox="0 0 179 94" fill="none" xmlns="http://www.w3.org/2000/svg">
<path d="M156.886 88.1712C157.258 88.9155 158.324 88.9073 158.686 88.1579C160.325 84.7632 163.799 77.6274 165.3 75C166.411 73.0565 167.213 71.4213 167.707 70.3513C168.003 69.709 167.53 69 166.823 69L148.918 69C148.175 69 147.691 69.7823 148.024 70.4472L156.886 88.1712Z" fill="#6C6C67"/>
<g filter="url(#filter0_d_2054_1855)">
<path d="M170 25C170 13.9543 161.046 5 150 5H29C17.9543 5 9 13.9543 9 25V61C9 72.0457 17.9543 81 29 81H150C161.046 81 170 72.0457 170 61V25Z" fill="#6C6C67"/>
</g>
<path d="M59.3041 21.484H60.3571C60.3571 24.877 59.2131 27.997 55.0011 30.09L54.4161 29.258C58.1341 27.425 59.3041 24.799 59.3041 21.601V21.484ZM55.0531 21.484H59.9411V22.355H55.0531V21.484ZM59.1351 24.396V25.228L54.6371 25.67L54.4681 24.708L59.1351 24.396ZM62.2551 20.249H63.3471V32.014H62.2551V20.249ZM63.0481 25.02H65.2191V25.917H63.0481V25.02ZM74.7991 20.249H75.8781V32.027H74.7991V20.249ZM66.9341 21.25H68.0001V24.357H71.3931V21.25H72.4721V29.193H66.9341V21.25ZM68.0001 25.215V28.309H71.3931V25.215H68.0001ZM82.2991 22.94H85.3281V23.824H82.2991V22.94ZM78.8411 21.328H79.9201V26.216H78.8411V21.328ZM78.8411 25.865H79.5821C80.8951 25.865 82.1821 25.787 83.6771 25.475L83.7941 26.372C82.2471 26.697 80.9601 26.762 79.5821 26.762H78.8411V25.865ZM87.1481 20.262H88.1751V28.231H87.1481V20.262ZM84.7951 20.496H85.8091V27.165H84.7951V20.496ZM83.7031 27.62H84.6261V28.049C84.6261 30.103 82.5071 31.572 80.1281 31.975L79.7251 31.13C81.8051 30.818 83.7031 29.557 83.7031 28.049V27.62ZM83.8591 27.62H84.7821V28.049C84.7821 29.557 86.6801 30.818 88.7601 31.13L88.3571 31.975C85.9911 31.572 83.8591 30.103 83.8591 28.049V27.62ZM95.7281 21.276H96.6121V23.382C96.6121 25.982 95.2081 28.517 93.3491 29.505L92.6861 28.647C94.3891 27.789 95.7281 25.527 95.7281 23.382V21.276ZM95.9231 21.276H96.7941V23.382C96.7941 25.449 98.1071 27.594 99.7711 28.426L99.1081 29.284C97.2881 28.309 95.9231 25.904 95.9231 23.382V21.276ZM100.798 20.262H101.89V32.014H100.798V20.262ZM101.63 25.02H103.814V25.93H101.63V25.02ZM107.427 24.24H108.493V26.463H107.427V24.24ZM111.743 24.24H112.809V26.463H111.743V24.24ZM104.801 26.073H115.422V26.944H104.801V26.073ZM110.105 27.828C112.627 27.828 114.135 28.569 114.135 29.908C114.135 31.247 112.627 32.001 110.105 32.001C107.583 32.001 106.075 31.247 106.075 29.908C106.075 28.569 107.583 27.828 110.105 27.828ZM110.105 28.66C108.272 28.66 107.167 29.115 107.167 29.908C107.167 30.714 108.272 31.156 110.105 31.156C111.951 31.156 113.043 30.714 113.043 29.908C113.043 29.115 111.951 28.66 110.105 28.66ZM110.118 20.47C112.666 20.47 114.252 21.289 114.252 22.667C114.252 24.032 112.666 24.838 110.118 24.838C107.557 24.838 105.984 24.032 105.984 22.667C105.984 21.289 107.557 20.47 110.118 20.47ZM110.118 21.315C108.246 21.315 107.089 21.809 107.089 22.667C107.089 23.512 108.246 24.006 110.118 24.006C111.99 24.006 113.147 23.512 113.147 22.667C113.147 21.809 111.99 21.315 110.118 21.315ZM119.672 21.939H120.53V23.85C120.53 26.294 119.035 28.816 117.202 29.752L116.578 28.894C118.255 28.075 119.672 25.839 119.672 23.85V21.939ZM119.867 21.939H120.725V23.85C120.725 25.709 122.051 27.802 123.754 28.608L123.143 29.466C121.284 28.543 119.867 26.177 119.867 23.85V21.939ZM116.994 21.458H123.325V22.368H116.994V21.458ZM124.716 20.262H125.808V32.014H124.716V20.262ZM125.548 25.007H127.732V25.917H125.548V25.007ZM136.688 20.249H137.767V32.027H136.688V20.249ZM137.507 24.929H139.691V25.839H137.507V24.929ZM129.2 28.296H130.136C132.346 28.296 133.88 28.218 135.661 27.88L135.778 28.777C133.945 29.102 132.385 29.193 130.136 29.193H129.2V28.296ZM129.174 21.354H134.491V25.566H130.266V28.66H129.2V24.682H133.425V22.238H129.174V21.354ZM146.32 22.329H149.609V23.213H146.32V22.329ZM146.32 24.838H149.635V25.735H146.32V24.838ZM141.224 21.276H146.593V26.788H141.224V21.276ZM145.527 22.147H142.277V25.917H145.527V22.147ZM149.271 20.275H150.35V28.855H149.271V20.275ZM142.797 30.87H150.636V31.754H142.797V30.87ZM142.797 28.075H143.876V31.273H142.797V28.075ZM35.942 37.106H37.684V49.183H35.942V37.106ZM31.197 37.951C33.017 37.951 34.356 39.615 34.356 42.241C34.356 44.893 33.017 46.557 31.197 46.557C29.377 46.557 28.038 44.893 28.038 42.241C28.038 39.615 29.377 37.951 31.197 37.951ZM31.197 39.524C30.3 39.524 29.689 40.473 29.689 42.241C29.689 44.035 30.3 44.997 31.197 44.997C32.094 44.997 32.692 44.035 32.692 42.241C32.692 40.473 32.094 39.524 31.197 39.524ZM39.646 43.19H50.553V44.555H39.646V43.19ZM40.985 37.34H49.227V40.564H42.714V41.877H40.998V39.342H47.524V38.653H40.985V37.34ZM40.998 41.24H49.461V42.553H40.998V41.24ZM41.024 45.283H49.292V49.027H41.024V45.283ZM47.589 46.635H42.714V47.662H47.589V46.635ZM59.86 37.106H61.602V49.183H59.86V37.106ZM55.115 37.951C56.935 37.951 58.274 39.615 58.274 42.241C58.274 44.893 56.935 46.557 55.115 46.557C53.295 46.557 51.956 44.893 51.956 42.241C51.956 39.615 53.295 37.951 55.115 37.951ZM55.115 39.524C54.218 39.524 53.607 40.473 53.607 42.241C53.607 44.035 54.218 44.997 55.115 44.997C56.012 44.997 56.61 44.035 56.61 42.241C56.61 40.473 56.012 39.524 55.115 39.524ZM72.5469 41.669H74.6659V43.086H72.5469V41.669ZM71.2599 37.106H73.0019V49.144H71.2599V37.106ZM63.9279 38.263H65.6569V45.738H63.9279V38.263ZM63.9279 44.776H64.9679C66.6839 44.776 68.5429 44.659 70.4799 44.269L70.6619 45.686C68.6729 46.102 66.7359 46.206 64.9679 46.206H63.9279V44.776ZM83.7941 40.317H86.8881V41.695H83.7941V40.317ZM86.4461 37.132H88.1751V46.011H86.4461V37.132ZM80.2061 47.571H88.4351V48.949H80.2061V47.571ZM80.2061 45.14H81.9481V48.364H80.2061V45.14ZM78.6071 37.912H80.3231V39.745H82.6111V37.912H84.3011V44.126H78.6071V37.912ZM80.3231 41.058V42.761H82.6111V41.058H80.3231ZM90.5271 38.614H100.459V39.992H90.5271V38.614ZM90.0721 46.557H100.966V47.948H90.0721V46.557ZM94.6351 44.971H96.3511V47.103H94.6351V44.971ZM95.4801 40.512C97.9891 40.512 99.5621 41.383 99.5621 42.865C99.5621 44.347 97.9891 45.218 95.4801 45.218C92.9711 45.218 91.3981 44.347 91.3981 42.865C91.3981 41.383 92.9711 40.512 95.4801 40.512ZM95.4801 41.851C93.9721 41.851 93.1661 42.176 93.1661 42.865C93.1661 43.554 93.9721 43.866 95.4801 43.866C96.9881 43.866 97.7941 43.554 97.7941 42.865C97.7941 42.176 96.9881 41.851 95.4801 41.851ZM94.6351 37.249H96.3511V39.472H94.6351V37.249ZM102.135 42.722H112.795V43.541H102.135V42.722ZM103.396 44.49H111.456V46.999H104.501V48.377H103.435V46.258H110.403V45.257H103.396V44.49ZM103.435 48.091H111.833V48.871H103.435V48.091ZM103.487 37.6H111.417V40.044H104.579V41.318H103.513V39.316H110.364V38.367H103.487V37.6ZM103.513 41.058H111.638V41.838H103.513V41.058ZM121.661 38.016H122.792C122.792 40.98 120.712 43.099 117.332 44.048L116.89 43.203C119.867 42.358 121.661 40.655 121.661 38.471V38.016ZM117.501 38.016H122.389V38.887H117.501V38.016ZM125.353 37.262H126.432V43.97H125.353V37.262ZM122.805 40.278H125.561V41.175H122.805V40.278ZM118.853 44.464H126.432V48.858H118.853V44.464ZM125.379 45.335H119.919V47.974H125.379V45.335ZM131.189 37.964H132.047V39.537C132.047 41.305 131.046 43.164 129.317 43.957L128.732 43.112C130.266 42.423 131.189 40.876 131.189 39.537V37.964ZM131.358 37.964H132.216V39.537C132.216 40.876 133.087 42.215 134.595 42.826L134.023 43.658C132.32 42.943 131.358 41.292 131.358 39.537V37.964ZM137.598 37.275H138.625V44.373H137.598V37.275ZM135.7 40.317H137.923V41.214H135.7V40.317ZM135.076 37.47H136.103V44.308H135.076V37.47ZM130.747 45.01H138.625V49.014H137.559V45.894H130.747V45.01ZM140.665 39.264H146.489V40.148H140.665V39.264ZM143.577 40.928C145.046 40.928 146.112 42.033 146.112 43.619C146.112 45.192 145.046 46.297 143.577 46.297C142.121 46.297 141.055 45.192 141.055 43.619C141.055 42.033 142.121 40.928 143.577 40.928ZM143.577 41.851C142.68 41.851 142.03 42.579 142.03 43.619C142.03 44.659 142.68 45.387 143.577 45.387C144.487 45.387 145.15 44.659 145.15 43.619C145.15 42.579 144.487 41.851 143.577 41.851ZM149.596 37.262H150.636V49.014H149.596V37.262ZM147.724 42.202H149.947V43.099H147.724V42.202ZM147.087 37.522H148.101V48.442H147.087V37.522ZM143.057 37.6H144.123V39.81H143.057V37.6ZM42.8081 54.262H43.8871V63.011H42.8081V54.262ZM34.5661 55.211H40.7541V56.095H34.5661V55.211ZM34.3711 61.243L34.2541 60.32C36.1781 60.32 38.9211 60.294 41.1181 60.034L41.1831 60.84C38.9211 61.204 36.2821 61.243 34.3711 61.243ZM35.7361 55.965H36.7761V60.476H35.7361V55.965ZM38.5441 55.965H39.5841V60.476H38.5441V55.965ZM40.8581 56.485H43.3801V57.369H40.8581V56.485ZM40.8581 58.734H43.3801V59.618H40.8581V58.734ZM36.3731 64.87H44.1991V65.754H36.3731V64.87ZM36.3731 62.296H37.4521V65.429H36.3731V62.296ZM49.2941 55.939H50.1651V57.85C50.1651 60.333 48.6701 62.829 46.7981 63.752L46.1741 62.894C47.8771 62.088 49.2941 59.878 49.2941 57.85V55.939ZM49.5021 55.939H50.3731V57.85C50.3731 59.839 51.7901 61.867 53.5191 62.608L52.9081 63.466C51.0101 62.582 49.5021 60.294 49.5021 57.85V55.939ZM46.5641 55.458H53.1291V56.368H46.5641V55.458ZM54.7151 54.262H55.7941V66.014H54.7151V54.262ZM58.1331 59.722H68.7931V60.541H58.1331V59.722ZM59.3941 61.49H67.4541V63.999H60.4991V65.377H59.4331V63.258H66.4011V62.257H59.3941V61.49ZM59.4331 65.091H67.8311V65.871H59.4331V65.091ZM59.4851 54.6H67.4151V57.044H60.5771V58.318H59.5111V56.316H66.3621V55.367H59.4851V54.6ZM59.5111 58.058H67.6361V58.838H59.5111V58.058ZM72.7711 63.622H83.4181V64.519H72.7711V63.622ZM77.5291 60.814H78.6081V63.882H77.5291V60.814ZM74.0191 55.094H75.0851V57.187H81.0781V55.094H82.1441V61.1H74.0191V55.094ZM75.0851 58.058V60.216H81.0781V58.058H75.0851ZM93.5961 54.262H94.6231V60.294H93.5961V54.262ZM91.6591 56.849H93.8691V57.72H91.6591V56.849ZM90.9701 54.483H91.9971V60.242H90.9701V54.483ZM85.3021 54.938H86.3811V59.228H85.3021V54.938ZM85.3021 58.747H86.0431C87.3561 58.747 88.6301 58.695 90.1381 58.409L90.2421 59.293C88.6821 59.579 87.4081 59.644 86.0431 59.644H85.3021V58.747ZM86.8751 60.827H94.6231V63.687H87.9801V65.442H86.9011V62.868H93.5701V61.698H86.8751V60.827ZM86.9011 64.987H95.0781V65.858H86.9011V64.987ZM104.1 54.678H105.049V55.328C105.049 57.577 102.761 59.189 100.317 59.605L99.8881 58.734C102.033 58.409 104.1 57.005 104.1 55.328V54.678ZM104.295 54.678H105.231V55.328C105.231 56.966 107.324 58.409 109.443 58.734L109.014 59.605C106.596 59.189 104.295 57.551 104.295 55.328V54.678ZM104.1 61.542H105.166V66.014H104.1V61.542ZM99.3551 60.879H109.976V61.776H99.3551V60.879ZM116.905 61.49H117.737V62.127C117.737 63.661 116.775 65.208 115.085 65.858L114.539 65.052C116.021 64.519 116.905 63.258 116.905 62.127V61.49ZM117.139 61.49H117.945V62.127C117.945 63.31 118.647 64.571 120.051 65.143L119.596 65.962C117.906 65.299 117.139 63.687 117.139 62.127V61.49ZM121.247 61.49H122.053V62.127C122.053 63.505 121.273 65.247 119.596 65.962L119.141 65.143C120.532 64.506 121.247 63.141 121.247 62.127V61.49ZM121.468 61.49H122.3V62.127C122.3 63.336 123.171 64.545 124.666 65.052L124.12 65.858C122.404 65.234 121.468 63.752 121.468 62.127V61.49ZM122.521 54.275H123.613V60.983H122.521V54.275ZM117.308 54.951C119.089 54.951 120.363 56.069 120.363 57.694C120.363 59.319 119.089 60.424 117.308 60.424C115.527 60.424 114.24 59.319 114.24 57.694C114.24 56.069 115.527 54.951 117.308 54.951ZM117.308 55.848C116.138 55.848 115.293 56.602 115.293 57.694C115.293 58.786 116.138 59.527 117.308 59.527C118.478 59.527 119.323 58.786 119.323 57.694C119.323 56.602 118.478 55.848 117.308 55.848ZM129.072 55.159C130.775 55.159 131.997 56.758 131.997 59.254C131.997 61.763 130.775 63.362 129.072 63.362C127.356 63.362 126.147 61.763 126.147 59.254C126.147 56.758 127.356 55.159 129.072 55.159ZM129.072 56.134C127.941 56.134 127.174 57.356 127.174 59.254C127.174 61.165 127.941 62.413 129.072 62.413C130.203 62.413 130.97 61.165 130.97 59.254C130.97 57.356 130.203 56.134 129.072 56.134ZM134.545 54.249H135.611V66.027H134.545V54.249ZM131.646 58.734H135.013V59.618H131.646V58.734ZM140.498 60.307H141.564V63.83H140.498V60.307ZM144.84 60.307H145.919V63.83H144.84V60.307ZM137.898 63.622H148.545V64.519H137.898V63.622ZM143.202 55.003C145.685 55.003 147.466 56.186 147.466 58.032C147.466 59.865 145.685 61.048 143.202 61.048C140.706 61.048 138.925 59.865 138.925 58.032C138.925 56.186 140.706 55.003 143.202 55.003ZM143.202 55.861C141.317 55.861 139.965 56.719 139.965 58.032C139.965 59.332 141.317 60.19 143.202 60.19C145.087 60.19 146.426 59.332 146.426 58.032C146.426 56.719 145.087 55.861 143.202 55.861ZM150.604 65.0889C150.197 65.0889 149.88 64.7715 149.88 64.3652C149.88 63.959 150.197 63.6416 150.604 63.6416C151.01 63.6416 151.327 63.959 151.327 64.3652C151.327 64.7715 151.01 65.0889 150.604 65.0889Z" fill="#EBEBEB"/>
<defs>
<filter id="filter0_d_2054_1855" x="0.1" y="0.1" width="178.8" height="93.8" filterUnits="userSpaceOnUse" color-interpolation-filters="sRGB">
<feFlood flood-opacity="0" result="BackgroundImageFix"/>
<feColorMatrix in="SourceAlpha" type="matrix" values="0 0 0 0 0 0 0 0 0 0 0 0 0 0 0 0 0 0 127 0" result="hardAlpha"/>
<feOffset dy="4"/>
<feGaussianBlur stdDeviation="4.45"/>
<feComposite in2="hardAlpha" operator="out"/>
<feColorMatrix type="matrix" values="0 0 0 0 0 0 0 0 0 0 0 0 0 0 0 0 0 0 0.25 0"/>
<feBlend mode="normal" in2="BackgroundImageFix" result="effect1_dropShadow_2054_1855"/>
<feBlend mode="normal" in="SourceGraphic" in2="effect1_dropShadow_2054_1855" result="shape"/>
</filter>
</defs>
</svg>
