<svg width="180" height="94" viewBox="0 0 180 94" fill="none" xmlns="http://www.w3.org/2000/svg">
<path d="M22.4144 88.1712C22.0422 88.9155 20.9757 88.9073 20.6139 88.1579C18.9752 84.7632 15.5014 77.6274 14 75C12.8894 73.0565 12.0872 71.4213 11.5933 70.3513C11.2968 69.709 11.7696 69 12.477 69L30.382 69C31.1253 69 31.6088 69.7823 31.2764 70.4472L22.4144 88.1712Z" fill="#6C6C67"/>
<g filter="url(#filter0_d_2054_1854)">
<path d="M9.30005 25C9.30005 13.9543 18.2544 5 29.3 5H150.3C161.346 5 170.3 13.9543 170.3 25V61C170.3 72.0457 161.346 81 150.3 81H29.3C18.2544 81 9.30005 72.0457 9.30005 61V25Z" fill="#6C6C67"/>
</g>
<path d="M35.684 28.262H36.763V36.855H35.684V28.262ZM36.425 31.824H38.505V32.721H36.425V31.824ZM32.473 29.172H33.617C33.617 32.214 31.485 34.437 28.118 35.516L27.65 34.632C30.614 33.722 32.473 31.902 32.473 29.64V29.172ZM28.131 29.172H33.019V30.056H28.131V29.172ZM29.431 38.87H37.283V39.754H29.431V38.87ZM29.431 35.984H30.51V39.221H29.431V35.984ZM42.729 29.471H43.626V30.407C43.626 32.565 42.3 34.372 40.324 35.074L39.765 34.229C41.533 33.605 42.729 32.071 42.729 30.407V29.471ZM42.937 29.471H43.834V30.407C43.834 31.993 45.056 33.423 46.798 34.008L46.239 34.853C44.289 34.19 42.937 32.461 42.937 30.407V29.471ZM48.15 28.262H49.242V35.373H48.15V28.262ZM41.39 35.997H49.242V40.014H48.15V36.881H41.39V35.997ZM40.051 29.081H46.486V29.952H40.051V29.081ZM59.524 28.262H60.603V40.014H59.524V28.262ZM60.343 33.085H62.527V33.995H60.343V33.085ZM51.503 30.134H58.432V31.018H51.503V30.134ZM55.013 31.993C56.677 31.993 57.873 33.111 57.873 34.697C57.873 36.283 56.677 37.401 55.013 37.401C53.362 37.401 52.153 36.283 52.153 34.697C52.153 33.111 53.362 31.993 55.013 31.993ZM55.013 32.89C53.947 32.89 53.18 33.631 53.18 34.697C53.18 35.75 53.947 36.504 55.013 36.504C56.079 36.504 56.846 35.75 56.846 34.697C56.846 33.631 56.079 32.89 55.013 32.89ZM54.454 28.405H55.533V30.537H54.454V28.405ZM64.645 29.432H72.211V30.329H64.645V29.432ZM63.527 37.479H74.148V38.376H63.527V37.479ZM67.648 33.28H68.727V37.921H67.648V33.28ZM71.808 29.432H72.874V30.602C72.874 32.058 72.874 33.67 72.445 36.049L71.366 35.906C71.808 33.657 71.808 32.006 71.808 30.602V29.432ZM81.077 35.49H81.909V36.127C81.909 37.661 80.947 39.208 79.257 39.858L78.711 39.052C80.193 38.519 81.077 37.258 81.077 36.127V35.49ZM81.311 35.49H82.117V36.127C82.117 37.31 82.819 38.571 84.223 39.143L83.768 39.962C82.078 39.299 81.311 37.687 81.311 36.127V35.49ZM85.419 35.49H86.225V36.127C86.225 37.505 85.445 39.247 83.768 39.962L83.313 39.143C84.704 38.506 85.419 37.141 85.419 36.127V35.49ZM85.64 35.49H86.472V36.127C86.472 37.336 87.343 38.545 88.838 39.052L88.292 39.858C86.576 39.234 85.64 37.752 85.64 36.127V35.49ZM86.693 28.275H87.785V34.983H86.693V28.275ZM81.48 28.951C83.261 28.951 84.535 30.069 84.535 31.694C84.535 33.319 83.261 34.424 81.48 34.424C79.699 34.424 78.412 33.319 78.412 31.694C78.412 30.069 79.699 28.951 81.48 28.951ZM81.48 29.848C80.31 29.848 79.465 30.602 79.465 31.694C79.465 32.786 80.31 33.527 81.48 33.527C82.65 33.527 83.495 32.786 83.495 31.694C83.495 30.602 82.65 29.848 81.48 29.848ZM90.7739 34.242H91.6579C93.8289 34.242 95.2069 34.164 96.8059 33.852L96.9099 34.736C95.2719 35.048 93.8679 35.126 91.6579 35.126H90.7739V34.242ZM90.7739 29.224H96.1559V30.108H91.8399V34.515H90.7739V29.224ZM98.6909 28.262H99.7699V36.842H98.6909V28.262ZM95.4019 31.512H98.9379V32.383H95.4019V31.512ZM92.2559 38.948H100.082V39.832H92.2559V38.948ZM92.2559 36.205H93.3349V39.455H92.2559V36.205ZM113.316 28.262H114.395V37.011H113.316V28.262ZM105.074 29.211H111.262V30.095H105.074V29.211ZM104.879 35.243L104.762 34.32C106.686 34.32 109.429 34.294 111.626 34.034L111.691 34.84C109.429 35.204 106.79 35.243 104.879 35.243ZM106.244 29.965H107.284V34.476H106.244V29.965ZM109.052 29.965H110.092V34.476H109.052V29.965ZM111.366 30.485H113.888V31.369H111.366V30.485ZM111.366 32.734H113.888V33.618H111.366V32.734ZM106.881 38.87H114.707V39.754H106.881V38.87ZM106.881 36.296H107.96V39.429H106.881V36.296ZM119.802 29.939H120.673V31.85C120.673 34.333 119.178 36.829 117.306 37.752L116.682 36.894C118.385 36.088 119.802 33.878 119.802 31.85V29.939ZM120.01 29.939H120.881V31.85C120.881 33.839 122.298 35.867 124.027 36.608L123.416 37.466C121.518 36.582 120.01 34.294 120.01 31.85V29.939ZM117.072 29.458H123.637V30.368H117.072V29.458ZM125.223 28.262H126.302V40.014H125.223V28.262ZM128.641 33.722H139.301V34.541H128.641V33.722ZM129.902 35.49H137.962V37.999H131.007V39.377H129.941V37.258H136.909V36.257H129.902V35.49ZM129.941 39.091H138.339V39.871H129.941V39.091ZM129.993 28.6H137.923V31.044H131.085V32.318H130.019V30.316H136.87V29.367H129.993V28.6ZM130.019 32.058H138.144V32.838H130.019V32.058ZM30.354 46.874H31.654V47.03C31.654 48.395 30.523 49.5 28.287 49.76L27.728 48.538C29.47 48.356 30.354 47.719 30.354 47.03V46.874ZM30.783 46.874H32.07V47.03C32.07 47.693 32.967 48.278 34.644 48.447L34.085 49.682C31.901 49.422 30.783 48.356 30.783 47.03V46.874ZM28.027 45.938H34.384V47.173H28.027V45.938ZM30.354 49.344H32.083V50.93H30.354V49.344ZM30.354 45.08H32.07V46.614H30.354V45.08ZM28.976 52.165H37.075V55.181H30.705V56.377H28.989V54.011H35.372V53.413H28.976V52.165ZM28.989 55.818H37.491V57.079H28.989V55.818ZM35.346 45.119H37.075V51.723H35.346V45.119ZM36.464 47.667H38.583V49.071H36.464V47.667ZM27.663 51.593L27.481 50.319C29.613 50.319 32.408 50.306 34.761 50.02L34.891 51.177C32.447 51.567 29.756 51.593 27.663 51.593ZM44.809 46.692H48.371V48.07H44.809V46.692ZM44.809 49.357H48.371V50.748H44.809V49.357ZM42.807 45.756C44.601 45.756 45.979 47.004 45.979 48.707C45.979 50.41 44.601 51.658 42.807 51.658C41 51.658 39.622 50.41 39.622 48.707C39.622 47.004 41 45.756 42.807 45.756ZM42.807 47.225C41.923 47.225 41.273 47.758 41.273 48.707C41.273 49.643 41.923 50.202 42.807 50.202C43.691 50.202 44.341 49.643 44.341 48.707C44.341 47.758 43.691 47.225 42.807 47.225ZM47.825 45.119H49.554V52.165H47.825V45.119ZM45.472 52.412C48.007 52.412 49.593 53.296 49.593 54.791C49.593 56.286 48.007 57.157 45.472 57.157C42.937 57.157 41.351 56.286 41.351 54.791C41.351 53.296 42.937 52.412 45.472 52.412ZM45.472 53.751C43.899 53.751 43.054 54.089 43.054 54.791C43.054 55.493 43.899 55.831 45.472 55.831C47.058 55.831 47.89 55.493 47.89 54.791C47.89 54.089 47.058 53.751 45.472 53.751ZM51.542 47.264H57.366V48.148H51.542V47.264ZM54.454 48.928C55.923 48.928 56.989 50.033 56.989 51.619C56.989 53.192 55.923 54.297 54.454 54.297C52.998 54.297 51.932 53.192 51.932 51.619C51.932 50.033 52.998 48.928 54.454 48.928ZM54.454 49.851C53.557 49.851 52.907 50.579 52.907 51.619C52.907 52.659 53.557 53.387 54.454 53.387C55.364 53.387 56.027 52.659 56.027 51.619C56.027 50.579 55.364 49.851 54.454 49.851ZM60.473 45.262H61.513V57.014H60.473V45.262ZM58.601 50.202H60.824V51.099H58.601V50.202ZM57.964 45.522H58.978V56.442H57.964V45.522ZM53.934 45.6H55V47.81H53.934V45.6ZM66.193 54.622H76.84V55.519H66.193V54.622ZM70.951 51.814H72.03V54.882H70.951V51.814ZM67.441 46.094H68.507V48.187H74.5V46.094H75.566V52.1H67.441V46.094ZM68.507 49.058V51.216H74.5V49.058H68.507ZM78.776 46.172H83.976V47.056H78.776V46.172ZM80.544 48.798H81.61V51.736H80.544V48.798ZM83.547 46.172H84.613V46.796C84.613 47.563 84.613 48.733 84.301 50.28L83.248 50.163C83.547 48.616 83.547 47.55 83.547 46.796V46.172ZM86.212 45.262H87.291V54.115H86.212V45.262ZM86.797 49.084H88.968V49.981H86.797V49.084ZM79.868 55.87H87.668V56.754H79.868V55.87ZM79.868 53.296H80.934V56.143H79.868V53.296ZM78.178 52.243L78.061 51.359C80.154 51.359 83.04 51.307 85.419 50.982L85.497 51.762C83.053 52.191 80.245 52.243 78.178 52.243ZM90.0849 47.264H95.9089V48.148H90.0849V47.264ZM92.9969 48.928C94.4659 48.928 95.5319 50.033 95.5319 51.619C95.5319 53.192 94.4659 54.297 92.9969 54.297C91.5409 54.297 90.4749 53.192 90.4749 51.619C90.4749 50.033 91.5409 48.928 92.9969 48.928ZM92.9969 49.851C92.0999 49.851 91.4499 50.579 91.4499 51.619C91.4499 52.659 92.0999 53.387 92.9969 53.387C93.9069 53.387 94.5699 52.659 94.5699 51.619C94.5699 50.579 93.9069 49.851 92.9969 49.851ZM99.0159 45.262H100.056V57.014H99.0159V45.262ZM97.1439 50.202H99.3669V51.099H97.1439V50.202ZM96.5069 45.522H97.5209V56.442H96.5069V45.522ZM92.4769 45.6H93.5429V47.81H92.4769V45.6ZM104.67 51.307H105.736V54.83H104.67V51.307ZM109.012 51.307H110.091V54.83H109.012V51.307ZM102.07 54.622H112.717V55.519H102.07V54.622ZM107.374 46.003C109.857 46.003 111.638 47.186 111.638 49.032C111.638 50.865 109.857 52.048 107.374 52.048C104.878 52.048 103.097 50.865 103.097 49.032C103.097 47.186 104.878 46.003 107.374 46.003ZM107.374 46.861C105.489 46.861 104.137 47.719 104.137 49.032C104.137 50.332 105.489 51.19 107.374 51.19C109.259 51.19 110.598 50.332 110.598 49.032C110.598 47.719 109.259 46.861 107.374 46.861ZM114.775 56.0889C114.369 56.0889 114.052 55.7715 114.052 55.3652C114.052 54.959 114.369 54.6416 114.775 54.6416C115.182 54.6416 115.499 54.959 115.499 55.3652C115.499 55.7715 115.182 56.0889 114.775 56.0889Z" fill="#EBEBEB"/>
<defs>
<filter id="filter0_d_2054_1854" x="0.400049" y="0.1" width="178.8" height="93.8" filterUnits="userSpaceOnUse" color-interpolation-filters="sRGB">
<feFlood flood-opacity="0" result="BackgroundImageFix"/>
<feColorMatrix in="SourceAlpha" type="matrix" values="0 0 0 0 0 0 0 0 0 0 0 0 0 0 0 0 0 0 127 0" result="hardAlpha"/>
<feOffset dy="4"/>
<feGaussianBlur stdDeviation="4.45"/>
<feComposite in2="hardAlpha" operator="out"/>
<feColorMatrix type="matrix" values="0 0 0 0 0 0 0 0 0 0 0 0 0 0 0 0 0 0 0.25 0"/>
<feBlend mode="normal" in2="BackgroundImageFix" result="effect1_dropShadow_2054_1854"/>
<feBlend mode="normal" in="SourceGraphic" in2="effect1_dropShadow_2054_1854" result="shape"/>
</filter>
</defs>
</svg>
