<svg width="17" height="18" viewBox="0 0 17 18" fill="none" xmlns="http://www.w3.org/2000/svg">
<path d="M4.5 17.2985C3.97396 17.2985 3.47917 17.1982 3.01562 16.9977C2.55208 16.7972 2.14323 16.5198 1.78906 16.1656C1.4375 15.8141 1.16146 15.4065 0.960938 14.943C0.760417 14.4795 0.660156 13.9847 0.660156 13.4586C0.660156 12.9326 0.760417 12.4391 0.960938 11.9781C1.16146 11.5146 1.4375 11.1058 1.78906 10.7516C2.14323 10.3974 2.55208 10.1214 3.01562 9.92346C3.47917 9.72294 3.97266 9.62268 4.49609 9.62268C5.02214 9.62268 5.51693 9.72294 5.98047 9.92346C6.44401 10.1214 6.85156 10.3974 7.20312 10.7516C7.55729 11.1058 7.83464 11.5146 8.03516 11.9781C8.23828 12.4391 8.33984 12.9326 8.33984 13.4586C8.33984 13.9847 8.23958 14.4795 8.03906 14.943C7.83854 15.4065 7.5612 15.8141 7.20703 16.1656C6.85286 16.5198 6.44401 16.7972 5.98047 16.9977C5.51953 17.1982 5.02604 17.2985 4.5 17.2985ZM3.06641 13.8453H5.94141C6.0612 13.8453 6.15885 13.8115 6.23438 13.7438C6.3099 13.6761 6.34766 13.5836 6.34766 13.4664C6.34766 13.3492 6.3099 13.2568 6.23438 13.1891C6.16146 13.1188 6.0638 13.0836 5.94141 13.0836H3.06641C2.94401 13.0836 2.84505 13.1188 2.76953 13.1891C2.69401 13.2568 2.65625 13.3492 2.65625 13.4664C2.65625 13.5836 2.69401 13.6761 2.76953 13.7438C2.84766 13.8115 2.94661 13.8453 3.06641 13.8453Z" fill="#AAAAA4"/>
<path d="M4.02734 8.83594V2.25781C4.02734 1.50781 4.21484 0.945312 4.58984 0.570312C4.96484 0.190104 5.52214 0 6.26172 0H9.78516C10.1758 0 10.4987 0.0442708 10.7539 0.132812C11.0091 0.216146 11.2669 0.390625 11.5273 0.65625L15.707 4.89844C15.8945 5.09115 16.0352 5.27083 16.1289 5.4375C16.2227 5.59896 16.2852 5.78385 16.3164 5.99219C16.3477 6.19531 16.3633 6.44531 16.3633 6.74219V13.5391C16.3633 14.2891 16.1758 14.8516 15.8008 15.2266C15.431 15.6068 14.8737 15.7969 14.1289 15.7969H8.61328C8.70703 15.6302 8.79036 15.4557 8.86328 15.2734C8.94141 15.0964 9.00391 14.9115 9.05078 14.7188H14.0742C14.4753 14.7188 14.7773 14.6146 14.9805 14.4062C15.1836 14.2031 15.2852 13.9062 15.2852 13.5156V6.76562H10.9961C10.5586 6.76562 10.2279 6.65625 10.0039 6.4375C9.78516 6.21354 9.67578 5.8776 9.67578 5.42969V1.08594H6.31641C5.92057 1.08594 5.62109 1.1901 5.41797 1.39844C5.21484 1.60677 5.11328 1.90104 5.11328 2.28125V8.83594C5.00911 8.82552 4.91276 8.81771 4.82422 8.8125C4.73568 8.80729 4.64453 8.80469 4.55078 8.80469C4.46224 8.80469 4.3737 8.80729 4.28516 8.8125C4.20182 8.81771 4.11589 8.82552 4.02734 8.83594ZM10.6836 5.30469C10.6836 5.46094 10.7174 5.57552 10.7852 5.64844C10.8529 5.71615 10.9648 5.75 11.1211 5.75H15.0742L10.6836 1.28906V5.30469Z" fill="#AAAAA4"/>
</svg>
